<?xml version="1.0" encoding="utf-8"?>
<!-- Generator: Adobe Illustrator 26.5.0, SVG Export Plug-In . SVG Version: 6.00 Build 0)  -->
<svg version="1.1" id="Default" xmlns="http://www.w3.org/2000/svg" xmlns:xlink="http://www.w3.org/1999/xlink" x="0px" y="0px"
	 viewBox="0 0 200 202.3" style="enable-background:new 0 0 200 202.3;" xml:space="preserve">
<style type="text/css">
	.st0{fill:#003366;}
	.st1{fill:#2990EA;}
</style>
<path class="st0" d="M169.7,34C155,13.3,130.6,0,103.4,0c-45,0-81.6,36.5-81.6,81.6c0,5.7,0.6,11.3,1.7,16.7l82.2-36.5h-45
	c7.4-15.9,23.8-27.2,42.5-27.2c13,0,24.6,5.4,33.1,13.6L169.7,34z"/>
<polygon class="st1" points="186.4,30 104.2,113.6 0,113.6 "/>
<path class="st0" d="M102.8,129.1c-11.5,0-22-4-30.2-10.7H28.8c13.6,26.9,41.7,45.3,74.1,45.3c33.4,0,62.2-19.4,75.3-47.6h-42.5
	C127.1,124.2,115.5,129.1,102.8,129.1"/>
</svg>
